<svg xmlns="http://www.w3.org/2000/svg" xmlns:xlink="http://www.w3.org/1999/xlink" width="1200" height="350" viewBox="0 0 1200 350" font-family="-apple-system, BlinkMacSystemFont, 'SF Pro Text', 'Geist', 'Inter', 'Segoe UI', Helvetica, Arial, sans-serif"><style></style><defs><filter id="sm" x="-10%" y="-10%" width="120%" height="140%"><feDropShadow dx="0" dy="1" stdDeviation="1.5" flood-color="#000" flood-opacity="0.5"/></filter><clipPath id="tbl"><rect x="8" y="8" width="1184" height="334" rx="14"/></clipPath></defs><rect x="8" y="8" width="1184" height="334" rx="14" fill="#09090b" filter="url(#sm)"/><g clip-path="url(#tbl)"><rect x="8" y="8" width="1184" height="44" fill="#27272a" fill-opacity=".5"/></g><text x="32" y="35.0" font-size="13" font-weight="500" fill="#a1a1aa">Layer</text><text x="240" y="35.0" font-size="13" font-weight="500" fill="#a1a1aa">Technologies</text><line x1="8" y1="52" x2="1192" y2="52" stroke="#27272a"/><g transform="translate(32,72.0) scale(0.75)" fill="none" stroke="#fafafa" stroke-width="2" stroke-linecap="round" stroke-linejoin="round"><path d="M9.937 15.5A2 2 0 0 0 8.5 14.063l-6.135-1.582a.5.5 0 0 1 0-.962L8.5 9.936A2 2 0 0 0 9.937 8.5l1.582-6.135a.5.5 0 0 1 .963 0L14.063 8.5A2 2 0 0 0 15.5 9.937l6.135 1.581a.5.5 0 0 1 0 .964L15.5 14.063a2 2 0 0 0-1.437 1.437l-1.582 6.135a.5.5 0 0 1-.963 0z"/><path d="M20 3v4M22 5h-4"/></g><text x="60" y="86.0" font-size="15" font-weight="500" fill="#fafafa">Intelligence</text><rect x="240" y="70.0" width="46" height="22" rx="11" fill="#27272a" stroke="none"/><text x="250" y="85.0" font-size="12" font-weight="600" fill="#fafafa">vLLM</text><rect x="292.4" y="70.0" width="93" height="22" rx="11" fill="#27272a" stroke="none"/><text x="302" y="85.0" font-size="12" font-weight="600" fill="#fafafa">NVFP4 / FP8</text><rect x="391.0" y="70.0" width="152" height="22" rx="11" fill="#27272a" stroke="none"/><text x="401" y="85.0" font-size="12" font-weight="600" fill="#fafafa">Speculative decoding</text><rect x="549.0" y="70.0" width="73" height="22" rx="11" fill="#27272a" stroke="none"/><text x="559" y="85.0" font-size="12" font-weight="600" fill="#fafafa">Voice AI</text><rect x="627.8" y="70.0" width="60" height="22" rx="11" fill="#27272a" stroke="none"/><text x="638" y="85.0" font-size="12" font-weight="600" fill="#fafafa">Agents</text><rect x="693.4" y="70.0" width="172" height="22" rx="11" fill="#27272a" stroke="none"/><text x="703" y="85.0" font-size="12" font-weight="600" fill="#fafafa">Claude · Gemini · Codex</text><line x1="8" y1="110" x2="1192" y2="110" stroke="#27272a"/><g transform="translate(32,130.0) scale(0.75)" fill="none" stroke="#fafafa" stroke-width="2" stroke-linecap="round" stroke-linejoin="round"><path d="M14.7 6.3a1 1 0 0 0 0 1.4l1.6 1.6a1 1 0 0 0 1.4 0l3.77-3.77a6 6 0 0 1-7.94 7.94l-6.91 6.91a2.12 2.12 0 0 1-3-3l6.91-6.91a6 6 0 0 1 7.94-7.94l-3.76 3.76z"/></g><text x="60" y="144.0" font-size="15" font-weight="500" fill="#fafafa">Tools</text><rect x="240" y="128.0" width="86" height="22" rx="11" fill="#27272a" stroke="none"/><text x="250" y="143.0" font-size="12" font-weight="600" fill="#fafafa">TypeScript</text><rect x="332.0" y="128.0" width="53" height="22" rx="11" fill="#27272a" stroke="none"/><text x="342" y="143.0" font-size="12" font-weight="600" fill="#fafafa">React</text><rect x="391.0" y="128.0" width="53" height="22" rx="11" fill="#27272a" stroke="none"/><text x="401" y="143.0" font-size="12" font-weight="600" fill="#fafafa">Tauri</text><rect x="450.0" y="128.0" width="73" height="22" rx="11" fill="#27272a" stroke="none"/><text x="460" y="143.0" font-size="12" font-weight="600" fill="#fafafa">Code-OSS</text><rect x="528.8" y="128.0" width="66" height="22" rx="11" fill="#27272a" stroke="none"/><text x="539" y="143.0" font-size="12" font-weight="600" fill="#fafafa">FastAPI</text><rect x="601.0" y="128.0" width="66" height="22" rx="11" fill="#27272a" stroke="none"/><text x="611" y="143.0" font-size="12" font-weight="600" fill="#fafafa">PySide6</text><line x1="8" y1="168" x2="1192" y2="168" stroke="#27272a"/><g transform="translate(32,188.0) scale(0.75)" fill="none" stroke="#fafafa" stroke-width="2" stroke-linecap="round" stroke-linejoin="round"><path d="M20 13c0 5-3.5 7.5-7.66 8.95a1 1 0 0 1-.67-.01C7.5 20.5 4 18 4 13V6a1 1 0 0 1 1-1c2 0 4.5-1.2 6.24-2.72a1.17 1.17 0 0 1 1.52 0C14.51 3.81 17 5 19 5a1 1 0 0 1 1 1z"/><path d="m9 12 2 2 4-4"/></g><text x="60" y="202.0" font-size="15" font-weight="500" fill="#fafafa">Assurance</text><rect x="240" y="186.0" width="66" height="22" rx="11" fill="#27272a" stroke="none"/><text x="250" y="201.0" font-size="12" font-weight="600" fill="#fafafa">DO-178C</text><rect x="312.2" y="186.0" width="53" height="22" rx="11" fill="#27272a" stroke="none"/><text x="322" y="201.0" font-size="12" font-weight="600" fill="#fafafa">MISRA</text><rect x="371.2" y="186.0" width="46" height="22" rx="11" fill="#27272a" stroke="none"/><text x="381" y="201.0" font-size="12" font-weight="600" fill="#fafafa">CBMC</text><rect x="423.6" y="186.0" width="60" height="22" rx="11" fill="#27272a" stroke="none"/><text x="434" y="201.0" font-size="12" font-weight="600" fill="#fafafa">CodeQL</text><rect x="489.20000000000005" y="186.0" width="53" height="22" rx="11" fill="#27272a" stroke="none"/><text x="499" y="201.0" font-size="12" font-weight="600" fill="#fafafa">MC/DC</text><rect x="548.2" y="186.0" width="99" height="22" rx="11" fill="#27272a" stroke="none"/><text x="558" y="201.0" font-size="12" font-weight="600" fill="#fafafa">Traceability</text><line x1="8" y1="226" x2="1192" y2="226" stroke="#27272a"/><g transform="translate(32,246.0) scale(0.75)" fill="none" stroke="#fafafa" stroke-width="2" stroke-linecap="round" stroke-linejoin="round"><path d="M17.8 19.2 16 11l3.5-3.5C21 6 21.5 4 21 3c-1-.5-3 0-4.5 1.5L13 8 4.8 6.2c-.5-.1-.9.1-1.1.5l-.3.5c-.2.5-.1 1 .3 1.3L9 12l-2 3H4l-1 1 3 2 2 3 1-1v-3l3-2 3.5 5.3c.3.4.8.5 1.3.3l.5-.2c.4-.3.6-.7.5-1.2z"/></g><text x="60" y="260.0" font-size="15" font-weight="500" fill="#fafafa">Systems</text><rect x="240" y="244.0" width="53" height="22" rx="11" fill="#27272a" stroke="none"/><text x="250" y="259.0" font-size="12" font-weight="600" fill="#fafafa">C++23</text><rect x="299.0" y="244.0" width="46" height="22" rx="11" fill="#27272a" stroke="none"/><text x="309" y="259.0" font-size="12" font-weight="600" fill="#fafafa">Rust</text><rect x="351.4" y="244.0" width="46" height="22" rx="11" fill="#27272a" stroke="none"/><text x="361" y="259.0" font-size="12" font-weight="600" fill="#fafafa">Qt 6</text><rect x="403.79999999999995" y="244.0" width="112" height="22" rx="11" fill="#27272a" stroke="none"/><text x="414" y="259.0" font-size="12" font-weight="600" fill="#fafafa">Embedded Linux</text><rect x="522.1999999999999" y="244.0" width="66" height="22" rx="11" fill="#27272a" stroke="none"/><text x="532" y="259.0" font-size="12" font-weight="600" fill="#fafafa">VxWorks</text><rect x="594.4" y="244.0" width="126" height="22" rx="11" fill="#27272a" stroke="none"/><text x="604" y="259.0" font-size="12" font-weight="600" fill="#fafafa">ARINC 615A / 665</text><line x1="8" y1="284" x2="1192" y2="284" stroke="#27272a"/><g transform="translate(32,304.0) scale(0.75)" fill="none" stroke="#fafafa" stroke-width="2" stroke-linecap="round" stroke-linejoin="round"><rect x="4" y="4" width="16" height="16" rx="2"/><rect x="9" y="9" width="6" height="6" rx="1"/><path d="M15 2v2M15 20v2M2 15h2M2 9h2M20 15h2M20 9h2M9 2v2M9 20v2"/></g><text x="60" y="318.0" font-size="15" font-weight="500" fill="#fafafa">Silicon</text><rect x="240" y="302.0" width="27" height="22" rx="11" fill="#27272a" stroke="none"/><text x="250" y="317.0" font-size="12" font-weight="600" fill="#fafafa">C</text><rect x="272.6" y="302.0" width="53" height="22" rx="11" fill="#27272a" stroke="none"/><text x="283" y="317.0" font-size="12" font-weight="600" fill="#fafafa">STM32</text><rect x="331.6" y="302.0" width="53" height="22" rx="11" fill="#27272a" stroke="none"/><text x="342" y="317.0" font-size="12" font-weight="600" fill="#fafafa">ESP32</text><rect x="390.6" y="302.0" width="46" height="22" rx="11" fill="#27272a" stroke="none"/><text x="401" y="317.0" font-size="12" font-weight="600" fill="#fafafa">LVGL</text><rect x="443.0" y="302.0" width="126" height="22" rx="11" fill="#27272a" stroke="none"/><text x="453" y="317.0" font-size="12" font-weight="600" fill="#fafafa">CAN · UART · USB</text><rect x="574.6" y="302.0" width="126" height="22" rx="11" fill="#27272a" stroke="none"/><text x="585" y="317.0" font-size="12" font-weight="600" fill="#fafafa">Sensor telemetry</text><rect x="8.5" y="8.5" width="1183" height="333" rx="14" fill="none" stroke="#27272a"/></svg>
